# xmcd
# 
# Track frame offsets:
#     180
#     23532
#     68748
#     90969
#     102541
#     130267
#     143769
#     177968
#     200693
#     228187
# 
# Disc length: 3242
# 
# Revision: 0
# Processed by: cddbd v1.5.2PL0 Copyright (c) Steve Scherf et al.
# Submitted via: BonkEnc v1.0.8
# 
DISCID=7d0ca80a
DTITLE=Matthieu Michel - Estate
DYEAR=1995
DGENRE=Contemporary Jazz
TTITLE0=Leaving
TTITLE1=Never Let Me Go
TTITLE2=Moon Princess
TTITLE3=It Could Be Worse
TTITLE4=Estate
TTITLE5=Round Trip
TTITLE6=Sail Away
TTITLE7=Caruso
TTITLE8=On The Spot
TTITLE9=Moment To Moment
EXTD=YEAR: 1995
EXTT0=
EXTT1=
EXTT2=
EXTT3=
EXTT4=
EXTT5=
EXTT6=
EXTT7=
EXTT8=
EXTT9=
PLAYORDER=
